<?xml version="1.0" standalone="no"?>
<!DOCTYPE svg PUBLIC "-//W3C//DTD SVG 20010904//EN"
 "http://www.w3.org/TR/2001/REC-SVG-20010904/DTD/svg10.dtd">
<svg version="1.0" xmlns="http://www.w3.org/2000/svg"
 width="1200.000000pt" height="1200.000000pt" viewBox="0 0 1200.000000 1200.000000"
 preserveAspectRatio="xMidYMid meet">
<metadata>
Created by potrace 1.11, written by Peter Selinger 2001-2013
</metadata>
<g transform="translate(0.000000,1200.000000) scale(0.100000,-0.100000)"
fill="#000000" stroke="none">
<path d="M6226 9415 c-75 -52 -80 -59 -66 -85 9 -16 15 -19 23 -11 23 23 27 7
27 -109 l0 -120 35 0 35 0 0 180 c0 99 -1 180 -2 179 -2 0 -25 -15 -52 -34z"/>
<path d="M5760 9128 c-43 -29 -53 -68 -48 -187 4 -93 4 -94 41 -127 50 -46
111 -48 159 -5 33 29 33 30 36 132 5 125 -7 173 -48 194 -43 22 -101 19 -140
-7z m105 -54 c13 -13 15 -35 13 -111 -3 -84 -6 -97 -24 -109 -18 -13 -24 -12
-47 7 -25 19 -27 26 -27 103 0 58 5 88 16 104 18 26 46 28 69 6z"/>
<path d="M5010 8725 l0 -155 155 0 155 0 0 -370 0 -369 -702 -700 c-386 -386
-700 -703 -697 -705 97 -103 2045 -2046 2051 -2046 5 0 470 460 1034 1022
l1025 1022 -701 701 -700 700 0 373 0 372 155 0 155 0 0 155 0 155 -314 0
-314 0 -6 -22 c-3 -13 -6 -277 -6 -588 l0 -565 638 -638 638 -638 -798 -797
c-439 -438 -802 -798 -806 -800 -4 -1 -366 357 -804 796 l-796 799 639 639
639 639 0 587 0 588 -320 0 -320 0 0 -155z"/>
<path d="M6073 8678 c-56 -38 -60 -44 -50 -65 12 -26 18 -28 35 -11 9 9 12
-16 12 -115 l0 -127 40 0 40 0 0 180 c0 99 -4 180 -8 180 -4 0 -35 -19 -69
-42z"/>
<path d="M5840 8195 c-45 -24 -52 -51 -48 -178 3 -110 4 -118 29 -143 31 -31
95 -42 139 -24 49 20 60 54 60 185 0 115 0 117 -29 146 -25 24 -37 29 -78 29
-26 -1 -59 -7 -73 -15z m104 -67 c11 -16 16 -46 16 -98 0 -52 -5 -82 -16 -98
-17 -24 -53 -29 -72 -10 -15 15 -16 181 -2 209 14 26 55 24 74 -3z"/>
<path d="M5890 7715 c-70 -70 -73 -76 -62 -100 7 -15 12 -73 12 -136 0 -109 0
-111 -29 -140 -24 -23 -38 -29 -74 -29 -37 0 -51 6 -75 30 -17 16 -33 45 -37
66 l-7 37 -509 -509 c-280 -280 -509 -513 -509 -519 0 -6 229 -239 509 -519
l509 -509 7 41 c8 47 46 86 94 97 39 8 94 -18 110 -51 15 -33 14 -226 -1 -259
-11 -24 -8 -30 62 -100 41 -41 79 -75 85 -75 6 0 61 51 123 113 l112 112 0
109 c0 106 -1 109 -19 92 -17 -16 -19 -16 -25 0 -4 9 -5 18 -4 19 2 0 27 18
56 38 l52 37 0 -110 c0 -61 3 -110 8 -110 4 0 248 241 542 535 l535 535 -540
540 -540 540 -3 -60 c-3 -59 -3 -60 -32 -60 l-30 0 0 92 0 93 -117 117 c-65
65 -120 118 -123 118 -3 0 -39 -34 -80 -75z m375 -569 c18 -8 38 -23 44 -34 6
-12 11 -72 11 -136 0 -105 -2 -117 -23 -141 -17 -20 -35 -28 -70 -32 -43 -5
-49 -3 -82 30 l-35 35 0 114 c0 106 2 116 23 136 22 21 61 40 85 41 7 1 28 -5
47 -13z m-475 -231 l0 -165 -30 0 -30 0 0 125 c0 121 -1 125 -19 115 -22 -11
-41 5 -25 20 18 17 89 69 97 69 4 1 7 -73 7 -164z m920 -165 l0 -170 -30 0
-30 0 0 132 c0 130 0 131 -20 113 -12 -11 -21 -14 -21 -7 -1 7 -2 16 -3 22 -1
7 87 76 102 79 1 1 2 -75 2 -169z m-1364 85 c52 -21 67 -65 62 -188 -3 -97 -4
-99 -36 -128 -47 -43 -102 -41 -148 5 l-34 34 0 107 c0 58 5 115 11 127 9 17
79 57 102 58 4 0 23 -7 43 -15z m-386 -273 c34 -34 45 -91 38 -194 -5 -59 -10
-74 -34 -99 -23 -24 -36 -29 -77 -29 -42 0 -53 4 -78 31 -28 30 -29 34 -29
141 0 119 6 140 48 162 46 25 99 20 132 -12z m1310 -152 l0 -170 -30 0 -30 0
0 132 c0 128 -1 131 -19 114 -17 -16 -19 -16 -25 0 -4 10 -1 21 6 25 7 4 31
21 53 37 22 17 41 31 43 31 1 1 2 -75 2 -169z m840 0 l0 -170 -30 0 -30 0 0
132 c0 103 -3 129 -12 120 -16 -16 -38 -15 -38 2 0 10 89 81 108 85 1 1 2 -75
2 -169z m-1320 95 c44 -23 50 -43 50 -165 0 -123 -9 -149 -60 -170 -66 -27
-141 19 -156 96 -10 52 1 176 17 201 16 27 64 52 97 53 13 0 36 -7 52 -15z
m940 -203 c34 -35 45 -94 37 -195 -5 -58 -11 -75 -33 -98 -23 -24 -36 -29 -77
-29 -42 0 -53 4 -78 31 -28 30 -29 34 -29 141 0 119 6 140 48 162 46 25 99 20
132 -12z m-1370 -152 l0 -170 -30 0 -30 0 0 131 0 131 -25 -16 c-24 -16 -25
-15 -25 4 0 12 18 32 52 55 29 19 54 35 55 35 2 0 3 -76 3 -170z m910 -75 c44
-23 50 -43 50 -167 0 -125 -7 -146 -59 -168 -44 -18 -95 -5 -125 31 -25 29
-26 37 -26 143 0 104 2 114 23 133 50 46 88 53 137 28z m-480 -240 l0 -165
-30 0 -30 0 0 125 c0 114 -7 145 -25 115 -7 -11 -25 -4 -25 10 0 9 90 79 103
80 4 0 7 -74 7 -165z"/>
<path d="M6177 7092 c-26 -28 -24 -202 1 -225 25 -23 58 -21 82 3 17 17 20 33
20 108 0 63 -4 94 -16 110 -19 27 -64 29 -87 4z"/>
<path d="M5256 6778 c-12 -16 -16 -47 -16 -108 0 -100 14 -130 60 -130 46 0
60 30 60 130 0 100 -14 130 -60 130 -18 0 -34 -8 -44 -22z"/>
<path d="M4850 6530 c-17 -17 -20 -33 -20 -115 0 -82 3 -98 20 -115 26 -26 46
-25 75 5 23 22 25 32 25 108 0 70 -3 89 -21 111 -24 31 -52 33 -79 6z"/>
<path d="M5690 6451 c-5 -11 -10 -62 -10 -114 0 -101 12 -127 57 -127 42 0 53
29 53 136 0 65 -4 104 -12 112 -20 20 -76 15 -88 -7z"/>
<path d="M6620 6270 c-17 -17 -20 -33 -20 -113 0 -98 8 -120 47 -132 17 -4 29
1 48 19 23 23 25 33 25 109 0 70 -3 89 -21 111 -24 31 -52 33 -79 6z"/>
<path d="M6177 6022 c-26 -28 -24 -202 1 -225 25 -23 57 -21 82 5 17 18 20 35
20 108 0 61 -4 92 -16 108 -19 27 -64 29 -87 4z"/>
<path d="M5727 7552 c-45 -45 -47 -50 -47 -104 0 -38 5 -62 16 -72 18 -19 65
-21 82 -4 14 14 17 214 4 222 -5 3 -30 -16 -55 -42z"/>
<path d="M5697 5462 c-12 -13 -17 -37 -17 -78 0 -57 2 -62 44 -103 24 -24 49
-40 55 -37 7 5 11 45 11 106 0 76 -4 102 -16 114 -21 21 -57 20 -77 -2z"/>
<path d="M2875 3947 c-3 -6 -4 -194 -3 -417 l3 -405 189 -3 c231 -3 272 6 340
74 49 48 66 91 66 164 0 73 -17 116 -68 168 l-47 48 29 24 c42 35 59 84 53
152 -9 97 -72 169 -171 195 -69 18 -385 18 -391 0z m335 -117 c59 -17 73 -34
78 -93 4 -46 1 -57 -21 -83 -25 -28 -28 -29 -136 -32 l-111 -4 0 111 0 111 78
0 c42 0 93 -5 112 -10z m62 -350 c45 -21 65 -116 38 -179 -17 -42 -53 -54
-177 -59 l-113 -4 0 132 0 133 113 -5 c61 -3 124 -11 139 -18z"/>
<path d="M3600 3540 l0 -421 73 3 72 3 0 415 0 415 -72 3 -73 3 0 -421z"/>
<path d="M3920 3540 l0 -420 70 0 70 0 2 292 c3 264 4 288 18 262 8 -16 24
-42 35 -59 11 -16 25 -39 32 -50 7 -11 48 -78 93 -148 44 -71 80 -131 80 -135
0 -3 6 -13 14 -21 8 -9 21 -27 28 -41 7 -14 25 -42 38 -62 25 -37 26 -38 93
-38 l67 0 0 420 0 420 -70 0 -70 0 -2 -292 c-2 -190 -6 -286 -12 -273 -5 11
-20 34 -33 51 -13 17 -23 34 -23 38 0 4 -11 22 -25 40 -14 18 -25 36 -25 40 0
4 -11 22 -25 40 -14 18 -25 36 -25 40 0 4 -11 22 -25 40 -14 18 -25 36 -25 40
0 4 -11 22 -25 40 -14 18 -25 36 -25 40 0 4 -10 22 -23 39 -28 41 -44 66 -59
95 -10 20 -19 22 -80 22 l-68 0 0 -420z"/>
<path d="M4949 3933 c-34 -92 -193 -503 -270 -701 -43 -110 -43 -112 40 -112
l69 0 31 81 c17 45 34 92 37 105 l6 24 156 -2 157 -3 35 -100 36 -100 72 -3
c62 -2 72 -1 72 14 0 9 -39 118 -87 243 -82 215 -127 333 -190 501 l-29 75
-62 3 c-60 3 -62 2 -73 -25z m139 -370 l41 -113 -109 0 -109 0 30 83 c17 45
39 106 50 135 26 76 31 80 45 41 6 -19 30 -85 52 -146z"/>
<path d="M5470 3541 l0 -421 70 0 70 0 0 176 0 176 118 -4 c172 -5 182 -16
192 -191 9 -149 15 -157 112 -157 62 0 68 2 68 20 0 12 -7 31 -15 44 -11 16
-19 63 -24 139 -7 103 -10 120 -35 156 -15 22 -35 42 -44 46 -13 5 -10 11 15
34 118 107 84 299 -65 373 -44 21 -62 23 -254 26 l-208 4 0 -421z m374 286
c44 -14 76 -61 76 -114 0 -92 -52 -122 -207 -123 l-103 0 0 125 0 125 98 -1
c53 0 114 -6 136 -12z"/>
<path d="M6107 3948 c-4 -12 22 -67 103 -213 50 -90 99 -182 136 -255 l34 -65
0 -147 0 -148 69 0 c54 0 70 4 75 16 3 9 6 78 6 153 0 130 2 141 26 187 43 79
79 146 109 199 15 28 42 77 60 110 17 33 43 80 57 106 13 25 23 50 20 57 -2 8
-29 12 -78 12 l-75 0 -19 -42 c-11 -24 -55 -110 -98 -191 l-80 -148 -69 133
c-38 73 -81 159 -96 191 l-26 57 -75 0 c-50 0 -76 -4 -79 -12z"/>
<path d="M7150 3540 l0 -410 265 0 265 0 0 70 0 70 -180 0 -180 0 0 340 0 340
-85 0 -85 0 0 -410z"/>
<path d="M7981 3928 c-21 -57 -271 -788 -271 -792 0 -4 38 -6 85 -6 l84 0 28
90 28 90 137 0 137 0 28 -90 28 -90 87 0 87 0 -115 338 c-64 185 -127 370
-141 410 l-25 72 -84 0 c-78 0 -85 -2 -93 -22z m162 -405 l25 -83 -94 0 c-94
0 -95 0 -89 23 4 12 25 80 48 152 l41 130 21 -70 c12 -39 34 -107 48 -152z"/>
<path d="M8500 3541 l0 -411 168 0 c92 0 196 5 231 10 145 24 211 97 211 232
0 81 -28 135 -86 164 l-41 21 28 18 c44 30 69 84 69 148 0 69 -12 103 -53 145
-58 60 -117 74 -334 80 l-193 5 0 -412z m385 239 c22 -21 25 -31 23 -74 -3
-45 -7 -53 -37 -73 -29 -19 -47 -23 -117 -23 l-84 0 0 101 0 101 94 -4 c84 -3
97 -6 121 -28z m5 -305 c38 -20 52 -46 52 -103 0 -39 -5 -51 -31 -74 -30 -27
-36 -28 -136 -28 l-105 0 0 110 0 110 95 0 c66 0 105 -5 125 -15z"/>
</g>
</svg>
